<?xml version="1.0" encoding="UTF-8"?>
<svg version="1.1" xmlns="http://www.w3.org/2000/svg" width="1426" height="1345">
<path d="M0 0 C470.58 0 941.16 0 1426 0 C1426 443.85 1426 887.7 1426 1345 C955.42 1345 484.84 1345 0 1345 C0 901.15 0 457.3 0 0 Z " fill="#FEFEFE" transform="translate(0,0)"/>
<path d="M0 0 C120.12 0 240.24 0 364 0 C364 12.54 364 25.08 364 38 C386.77 37.505 386.77 37.505 410 37 C410 24.79 410 12.58 410 0 C487.22 0 564.44 0 644 0 C644 205.26 644 410.52 644 622 C539.39 622 434.78 622 327 622 C326.67 609.46 326.34 596.92 326 584 C310.82 584.33 295.64 584.66 280 585 C280 597.21 280 609.42 280 622 C187.6 622 95.2 622 0 622 C0 416.74 0 211.48 0 0 Z " fill="#FEFEFE" transform="translate(383,302)"/>
<path d="M0 0 C77.22 0 154.44 0 234 0 C234 205.26 234 410.52 234 622 C129.39 622 24.78 622 -83 622 C-83 509.47 -83 396.94 -83 281 C-70.79 281 -58.58 281 -46 281 C-46 381.32 -46 481.64 -46 585 C34.19 585 114.38 585 197 585 C197 404.16 197 223.32 197 37 C131.99 37 66.98 37 0 37 C0 24.79 0 12.58 0 0 Z " fill="#231F20" transform="translate(793,302)"/>
<path d="M0 0 C120.12 0 240.24 0 364 0 C364 55.77 364 111.54 364 169 C351.46 169 338.92 169 326 169 C326 125.44 326 81.88 326 37 C230.63 37 135.26 37 37 37 C37 217.84 37 398.68 37 585 C117.19 585 197.38 585 280 585 C280 597.21 280 609.42 280 622 C187.6 622 95.2 622 0 622 C0 416.74 0 211.48 0 0 Z " fill="#242021" transform="translate(383,302)"/>
<path d="M0 0 C2.35392416 0.08036525 4.70811252 0.15335035 7.0625 0.21875 C12.79748511 0.39402145 18.52250123 0.66070095 24.25 1 C17.95780858 9.44609733 17.95780858 9.44609733 14.98828125 13.04296875 C14.43229248 13.71763184 13.87630371 14.39229492 13.3034668 15.08740234 C12.72894775 15.78043457 12.15442871 16.4734668 11.5625 17.1875 C10.9538208 17.92436035 10.3451416 18.6612207 9.71801758 19.42041016 C5.54332729 24.46498685 1.32826521 29.47394598 -2.91235352 34.46313477 C-7.26147354 39.58557489 -11.51162226 44.78588063 -15.75 50 C-20.52971979 55.88008694 -25.3448364 61.72431863 -30.25 67.5 C-37.61631599 76.17724883 -44.81693193 84.97140653 -51.75 94 C-48.66040496 100.51106475 -45.04229642 106.60527945 -41.26858521 112.74157715 C-39.37724611 115.81790626 -37.4969397 118.90095626 -35.6171875 121.984375 C-35.2226387 122.63134338 -34.8280899 123.27831177 -34.42158508 123.94488525 C-29.8187881 131.5071407 -25.31788484 139.12947357 -20.8125 146.75 C-15.85713846 155.12729586 -10.89280982 163.48866901 -5.66748047 171.70141602 C-0.66498218 179.62434344 4.0418007 187.72993077 8.8085022 195.79592896 C14.62126899 205.6287909 20.51344911 215.39985999 26.59301758 225.07104492 C27.08181396 225.85068604 27.57061035 226.63032715 28.07421875 227.43359375 C28.49791748 228.10447021 28.92161621 228.77534668 29.3581543 229.46655273 C30.25 231 30.25 231 30.25 232 C24.39704142 232.24805523 18.54716596 232.42903011 12.69018555 232.54931641 C10.70038549 232.59946992 8.71095155 232.66761595 6.72241211 232.75439453 C-9.75288112 233.45512004 -9.75288112 233.45512004 -14.48925781 230.00415039 C-16.33123091 227.40627324 -17.55434268 224.9451322 -18.75 222 C-19.53315358 220.66809125 -20.3362851 219.34761239 -21.1640625 218.04296875 C-21.90453608 216.75982271 -22.64141682 215.47459774 -23.375 214.1875 C-27.0837496 207.78695069 -30.90152634 201.46644834 -34.8125 195.1875 C-39.95202663 186.9295485 -45.02377606 178.63222035 -50.0625 170.3125 C-56.30699753 160.00427941 -62.59751468 149.72603514 -68.9230957 139.46728516 C-73.97712639 131.26697428 -79.00939734 123.05362499 -83.98901367 114.80786133 C-86.42352981 110.78194381 -88.86909508 106.7772616 -91.46875 102.85546875 C-91.86126953 102.25452393 -92.25378906 101.6535791 -92.65820312 101.03442383 C-93.65374096 99.52130427 -94.66957742 98.02158969 -95.6875 96.5234375 C-96.75 94 -96.75 94 -96.3125 91.6328125 C-94.12867852 87.95307331 -91.50080358 84.7690823 -88.75 81.5 C-87.56375222 80.06622164 -86.37887096 78.63131165 -85.1953125 77.1953125 C-84.60911133 76.48536133 -84.02291016 75.77541016 -83.41894531 75.04394531 C-81.09541881 72.19833912 -78.85063456 69.29744962 -76.625 66.375 C-69.45597115 56.98588479 -62.13793409 47.71765608 -54.75 38.5 C-49.70092708 32.20237157 -49.70092708 32.20237157 -44.68743896 25.87643433 C-43.78342226 24.73563671 -42.87131602 23.60115695 -41.94781494 22.47607422 C-39.45410413 19.38924781 -37.34000467 16.36219387 -35.49316406 12.84545898 C-27.03520625 -2.23722192 -15.89374564 -0.94488897 0 0 Z " fill="#242021" transform="translate(874.75,511)"/>
<path d="M0 0 C51.15 0 102.3 0 155 0 C155 12.21 155 24.42 155 37 C116.06 37 77.12 37 37 37 C37 74.95 37 112.9 37 152 C24.79 152 12.58 152 0 152 C0 101.84 0 51.68 0 0 Z " fill="#231F20" transform="translate(510,597)"/>
<path d="M0 0 C10.291875 -0.103125 20.58375 -0.20625 31.1875 -0.3125 C34.41039795 -0.35802002 37.6332959 -0.40354004 40.95385742 -0.45043945 C43.54605065 -0.4650605 46.13825548 -0.47779733 48.73046875 -0.48828125 C50.04583618 -0.51386108 51.36120361 -0.53944092 52.71643066 -0.5657959 C63.50087315 -0.57081706 73.40619177 1.31406029 81.5625 8.8125 C88.61583351 16.83306279 90.28953903 24.28705588 90 35 C89.00347245 41.97569288 86.17750933 48.14676056 81 53 C76.03475729 56.1729112 70.65466901 58.36312213 65 60 C65.64066406 60.14695312 66.28132813 60.29390625 66.94140625 60.4453125 C74.38114607 62.37454459 79.62441877 64.99299551 83.62109375 71.734375 C85.16097296 75.38122774 85.68951355 78.50624508 86.125 82.4375 C86.20427734 83.12908203 86.28355469 83.82066406 86.36523438 84.53320312 C87.02208678 90.51001717 87.38809807 96.49339671 87.65625 102.5 C88.0502709 106.51184914 88.94307643 110.11324882 90 114 C86.541824 114.0868329 83.08392656 114.14033282 79.625 114.1875 C78.64015625 114.21263672 77.6553125 114.23777344 76.640625 114.26367188 C75.69960938 114.27333984 74.75859375 114.28300781 73.7890625 114.29296875 C72.91975098 114.3086792 72.05043945 114.32438965 71.15478516 114.34057617 C70.44370605 114.22818604 69.73262695 114.1157959 69 114 C66.88507994 110.82761991 66.69813225 109.70431119 66.47265625 106.02734375 C66.40240234 105.04443359 66.33214844 104.06152344 66.25976562 103.04882812 C66.12999749 101.00208918 66.00233428 98.9552155 65.87695312 96.90820312 C65.20355859 87.57167891 64.10403217 78.61966634 57 72 C50.26162606 68.06532185 43.19694261 68.44844438 35.5625 68.3125 C28.8490625 68.1578125 28.8490625 68.1578125 22 68 C22 83.18 22 98.36 22 114 C14.74 114 7.48 114 0 114 C0 76.38 0 38.76 0 0 Z " fill="#010101" transform="translate(294,1085)"/>
<path d="M0 0 C8.58 0 17.16 0 26 0 C27.8145412 5.41599099 29.62733864 10.83254542 31.4375 16.25 C31.70844482 17.06055847 31.97938965 17.87111694 32.25854492 18.70623779 C36.28856476 30.77037216 40.24577816 42.85375505 44.05639648 54.98925781 C45.50727457 59.56756856 46.98652557 64.08255471 48.828125 68.51953125 C51.89542065 75.98968671 54.31982701 83.69969537 56.85595703 91.36206055 C57.75852787 94.08825828 58.66602744 96.81277945 59.57421875 99.53710938 C60.14872306 101.26553011 60.72295212 102.99404237 61.296875 104.72265625 C61.56868591 105.53920181 61.84049683 106.35574738 62.12054443 107.19703674 C64 112.88387812 64 112.88387812 64 114 C56.08 114 48.16 114 40 114 C38.845 110.24625 37.69 106.4925 36.5 102.625 C36.13455078 101.44244629 35.76910156 100.25989258 35.39257812 99.04150391 C35.10833984 98.11257324 34.82410156 97.18364258 34.53125 96.2265625 C34.09135742 94.79691162 34.09135742 94.79691162 33.64257812 93.33837891 C33 91 33 91 33 89 C19.14 89 5.28 89 -9 89 C-9.33 90.65 -9.66 92.3 -10 94 C-10.92453039 97.27345021 -11.96969766 100.50843557 -13 103.75 C-13.40992188 105.06291016 -13.40992188 105.06291016 -13.828125 106.40234375 C-14.09109375 107.23378906 -14.3540625 108.06523438 -14.625 108.921875 C-14.86476563 109.68081055 -15.10453125 110.43974609 -15.3515625 111.22167969 C-16 113 -16 113 -17 114 C-18.70772358 114.08713831 -20.41898649 114.10700007 -22.12890625 114.09765625 C-23.68061523 114.09282227 -23.68061523 114.09282227 -25.26367188 114.08789062 C-26.35228516 114.07951172 -27.44089844 114.07113281 -28.5625 114.0625 C-30.2012207 114.05573242 -30.2012207 114.05573242 -31.87304688 114.04882812 C-34.58208495 114.03699826 -37.29101599 114.02051543 -40 114 C-31.08089748 86.73220669 -21.59563325 59.68015546 -11.94958496 32.6619873 C-10.7923881 29.41799812 -9.63876054 26.17275018 -8.48599243 22.92718506 C-7.32529672 19.65932639 -6.16267195 16.39215609 -5 13.125 C-4.59700684 11.99126953 -4.19401367 10.85753906 -3.77880859 9.68945312 C-3.23861084 8.17641602 -3.23861084 8.17641602 -2.6875 6.6328125 C-2.38199219 5.77574707 -2.07648437 4.91868164 -1.76171875 4.03564453 C-1 2 -1 2 0 0 Z " fill="#020202" transform="translate(657,1085)"/>
<path d="M0 0 C53.13 0 106.26 0 161 0 C161 12.21 161 24.42 161 37 C107.87 37 54.74 37 0 37 C0 24.79 0 12.58 0 0 Z " fill="#242021" transform="translate(510,508)"/>
<path d="M0 0 C27.72 0 55.44 0 84 0 C84 5.94 84 11.88 84 18 C63.54 18 43.08 18 22 18 C22 26.91 22 35.82 22 45 C39.82 45 57.64 45 76 45 C76 50.94 76 56.88 76 63 C58.18 63 40.36 63 22 63 C22 73.89 22 84.78 22 96 C42.79 96 63.58 96 85 96 C85 101.94 85 107.88 85 114 C56.95 114 28.9 114 0 114 C0 76.38 0 38.76 0 0 Z " fill="#000000" transform="translate(1214,1085)"/>
<path d="M0 0 C27.72 0 55.44 0 84 0 C84 5.94 84 11.88 84 18 C63.54 18 43.08 18 22 18 C22 26.91 22 35.82 22 45 C39.82 45 57.64 45 76 45 C76 50.94 76 56.88 76 63 C58.18 63 40.36 63 22 63 C22 73.89 22 84.78 22 96 C42.79 96 63.58 96 85 96 C85 101.94 85 107.88 85 114 C56.95 114 28.9 114 0 114 C0 76.38 0 38.76 0 0 Z " fill="#000000" transform="translate(464,1085)"/>
<path d="M0 0 C8.28414952 7.51580513 12.93320403 17.10664695 14.50390625 28.1015625 C7.24390625 28.1015625 -0.01609375 28.1015625 -7.49609375 28.1015625 C-8.57890625 25.78125 -8.57890625 25.78125 -9.68359375 23.4140625 C-12.78440188 17.27307656 -16.39704058 12.80649401 -22.80078125 9.8359375 C-30.69768705 7.68431679 -40.51328277 7.66999341 -48.05859375 11.0390625 C-57.34789237 16.67899381 -63.08537892 25.66297468 -66.03808594 35.9987793 C-68.85951075 48.95236775 -66.58978233 62.79335097 -59.68359375 73.9765625 C-55.16268999 80.24676067 -49.97594163 84.76019138 -42.49609375 87.1015625 C-34.1663195 88.4278883 -24.86096537 88.18515695 -17.515625 83.79296875 C-12.41628663 79.52214957 -9.92602701 74.17639566 -7.49609375 68.1015625 C-0.23609375 68.1015625 7.02390625 68.1015625 14.50390625 68.1015625 C12.8669387 80.86990942 7.61763854 89.99193384 -2.49609375 98.1015625 C-16.9709169 107.27095254 -34.2025745 109.56088875 -50.87109375 106.0390625 C-64.54613795 101.97248642 -75.30860073 93.0213907 -82.21875 80.63671875 C-90.26345456 64.67031735 -92.95432852 44.15260049 -87.59375 26.82421875 C-81.01794262 10.51340827 -71.47846222 0.4195386 -56.05859375 -7.7109375 C-37.52980692 -13.88719978 -15.78203481 -12.00323774 0 0 Z " fill="#020202" transform="translate(201.49609375,1093.8984375)"/>
<path d="M0 0 C7.92 0 15.84 0 24 0 C28.50022391 12.37561576 28.50022391 12.37561576 29.78125 16.83203125 C30.06355469 17.80720703 30.34585937 18.78238281 30.63671875 19.78710938 C30.92160156 20.78548828 31.20648437 21.78386719 31.5 22.8125 C31.80550781 23.87146484 32.11101562 24.93042969 32.42578125 26.02148438 C33.28788981 29.01318449 34.14509634 32.00623424 35 35 C35.54140625 36.89298828 35.54140625 36.89298828 36.09375 38.82421875 C36.6989475 40.94501861 37.3031108 43.06611386 37.90625 45.1875 C39.72079432 51.51248307 41.57276818 57.82655464 43.41821289 64.14257812 C45.64055745 71.75376092 47.83769919 79.37151017 50 87 C53.44204421 75.34126505 56.85066783 63.67913678 60 51.9375 C62.30538369 43.35871583 64.83125824 34.86259716 67.44946289 26.37451172 C70.13978384 17.62700896 72.59198717 8.82938039 75 0 C82.92 0 90.84 0 99 0 C97.77886334 5.49511498 96.6733341 10.3466557 94.86791992 15.5690918 C94.44914581 16.78834351 94.0303717 18.00759521 93.59890747 19.26379395 C93.14284746 20.57563219 92.68669869 21.88743959 92.23046875 23.19921875 C91.7520733 24.58647781 91.27412738 25.97389197 90.79660034 27.3614502 C89.52694304 31.04703039 88.25147095 34.73057279 86.97487259 38.41375351 C85.66053887 42.20923956 84.35177754 46.00664515 83.04272461 49.80395508 C81.22832032 55.0659653 79.41250696 60.32748404 77.59454823 65.58826733 C73.72726137 76.78006899 69.8891939 87.98175769 66.0625 99.1875 C65.29921854 101.4205923 64.53575904 103.65362366 63.77226257 105.88664246 C62.8478284 108.5909765 61.92396203 111.29550461 61 114 C53.74 114 46.48 114 39 114 C36.13799497 106.21334892 33.40732201 98.39378014 30.76171875 90.53125 C29.93985916 88.0974663 29.11791569 85.66371092 28.29589844 83.22998047 C27.86548001 81.95441997 27.43510122 80.67884608 27.00476074 79.40325928 C19.56488869 57.35399361 12.04206842 35.33686338 4.3190918 13.38476562 C4.02332748 12.5427359 3.72756317 11.70070618 3.4228363 10.8331604 C2.87549582 9.27580227 2.32672687 7.71894516 1.77626038 6.16268921 C0 1.1112254 0 1.1112254 0 0 Z " fill="#020202" transform="translate(1041,1085)"/>
<path d="M0 0 C31.02 0 62.04 0 94 0 C94 5.94 94 11.88 94 18 C82.12 18 70.24 18 58 18 C58 49.68 58 81.36 58 114 C50.74 114 43.48 114 36 114 C36 82.32 36 50.64 36 18 C24.12 18 12.24 18 0 18 C0 12.06 0 6.12 0 0 Z " fill="#000000" transform="translate(776,1085)"/>
<path d="M0 0 C7.26 0 14.52 0 22 0 C22 37.62 22 75.24 22 114 C14.74 114 7.48 114 0 114 C0 76.38 0 38.76 0 0 Z " fill="#000000" transform="translate(945,1085)"/>
<path d="M0 0 C5.445 -0.0825 10.89 -0.165 16.5 -0.25 C18.20220703 -0.28641602 19.90441406 -0.32283203 21.65820312 -0.36035156 C30.78598866 -0.4746073 37.60749068 -0.28269658 44.5 6.4375 C46.82028322 11.94817265 46.95916276 17.12055193 46 23 C43.90299014 27.34962822 40.76416879 29.86347854 36.4375 31.875 C31.27861352 33.56336285 26.81905265 34.12246143 21.38671875 34.09765625 C19.70002075 34.09390991 19.70002075 34.09390991 17.97924805 34.09008789 C16.56297119 34.08098389 15.14669434 34.07187988 13.6875 34.0625 C9.170625 34.041875 4.65375 34.02125 0 34 C0 22.78 0 11.56 0 0 Z " fill="#F8F8F8" transform="translate(316,1103)"/>
<path d="M0 0 C11.88 0 23.76 0 36 0 C36 12.21 36 24.42 36 37 C24.12 37 12.24 37 0 37 C0 24.79 0 12.58 0 0 Z " fill="#231F20" transform="translate(710,508)"/>
<path d="M0 0 C0.66 0 1.32 0 2 0 C3.49385269 4.74633535 4.98715299 9.49284405 6.47998047 14.23950195 C6.98602011 15.84827161 7.49220076 17.45699692 7.99853516 19.06567383 C9.44591179 23.66431899 10.89046423 28.2638328 12.33081055 32.86468506 C12.76683262 34.2559868 13.20379762 35.6469935 13.6418457 37.03765869 C14.21700496 38.86411732 14.78831502 40.6917868 15.359375 42.51953125 C15.67874023 43.53764893 15.99810547 44.5557666 16.32714844 45.60473633 C17 48 17 48 17 50 C6.44 50 -4.12 50 -15 50 C-14.01 46.7 -13.02 43.4 -12 40 C-11.30002046 37.53928762 -10.60009063 35.07855472 -9.90673828 32.6159668 C-6.82388182 21.67109383 -3.48779453 10.82205748 0 0 Z " fill="#F7F7F7" transform="translate(668,1108)"/>
</svg>
